# Exported from Wings 3D 1.0.2
mtllib 2.mtl
o octotoad2
#98 vertices, 96 faces
v 4.34197175 1.31616993 -2.23860248
v 4.34197175 1.31616993 -3.32743581
v 4.34197175 0.22733660 -2.23860248
v 4.34197175 0.22733660 -3.32743581
v 1.51563841 1.31616993 -2.23860248
v 1.51563841 1.31616993 -3.32743581
v 1.51563841 0.22733660 -2.23860248
v 1.51563841 0.22733660 -3.32743581
v 3.47322175 2.18491993 -2.23860248
v 3.47322175 2.18491993 -3.32743581
v 3.47322175 -0.64141340 -2.23860248
v 3.47322175 -0.64141340 -3.32743581
v 3.47322175 1.31616993 -1.36985248
v 3.47322175 1.31616993 -4.19618581
v 3.47322175 0.22733660 -1.36985248
v 3.47322175 0.22733660 -4.19618581
v 2.38438841 2.18491993 -2.23860248
v 2.38438841 2.18491993 -3.32743581
v 2.38438841 -0.64141340 -2.23860248
v 2.38438841 -0.64141340 -3.32743581
v 2.38438841 1.31616993 -1.36985248
v 2.38438841 1.31616993 -4.19618581
v 2.38438841 0.22733660 -1.36985248
v 2.38438841 0.22733660 -4.19618581
v 4.45780508 1.32775327 -2.78301914
v 4.45780508 0.77175327 -2.22701914
v 3.99447175 1.83741993 -2.27335248
v 3.99447175 1.28141993 -1.71735248
v 4.45780508 0.77175327 -3.33901914
v 3.99447175 1.83741993 -3.29268581
v 3.99447175 1.28141993 -3.84868581
v 4.45780508 0.21575327 -2.78301914
v 3.99447175 -0.29391340 -2.27335248
v 3.99447175 0.26208660 -1.71735248
v 3.99447175 -0.29391340 -3.29268581
v 3.99447175 0.26208660 -3.84868581
v 1.39980508 1.32775327 -2.78301914
v 1.39980508 0.77175327 -2.22701914
v 1.86313841 1.83741993 -2.27335248
v 1.86313841 1.28141993 -1.71735248
v 1.39980508 0.77175327 -3.33901914
v 1.86313841 1.83741993 -3.29268581
v 1.86313841 1.28141993 -3.84868581
v 1.39980508 0.21575327 -2.78301914
v 1.86313841 -0.29391340 -2.27335248
v 1.86313841 0.26208660 -1.71735248
v 1.86313841 -0.29391340 -3.29268581
v 1.86313841 0.26208660 -3.84868581
v 3.48480508 2.30075327 -2.78301914
v 3.43847175 1.83741993 -1.71735248
v 2.92880508 2.30075327 -2.22701914
v 3.43847175 1.83741993 -3.84868581
v 2.92880508 2.30075327 -3.33901914
v 3.48480508 -0.75724673 -2.78301914
v 3.43847175 -0.29391340 -1.71735248
v 2.92880508 -0.75724673 -2.22701914
v 3.43847175 -0.29391340 -3.84868581
v 2.92880508 -0.75724673 -3.33901914
v 3.48480508 0.77175327 -1.25401914
v 2.92880508 1.32775327 -1.25401914
v 3.48480508 0.77175327 -4.31201914
v 2.92880508 1.32775327 -4.31201914
v 2.92880508 0.21575327 -1.25401914
v 2.92880508 0.21575327 -4.31201914
v 2.37280508 2.30075327 -2.78301914
v 2.41913841 1.83741993 -1.71735248
v 2.41913841 1.83741993 -3.84868581
v 2.37280508 -0.75724673 -2.78301914
v 2.41913841 -0.29391340 -1.71735248
v 2.41913841 -0.29391340 -3.84868581
v 2.37280508 0.77175327 -1.25401914
v 2.37280508 0.77175327 -4.31201914
v 4.59680508 0.77175327 -2.78301914
v 1.26080508 0.77175327 -2.78301914
v 4.04080508 1.88375327 -2.78301914
v 4.04080508 -0.34024673 -2.78301914
v 3.85547175 1.69841993 -1.85635248
v 4.04080508 0.77175327 -1.67101914
v 3.85547175 1.69841993 -3.70968581
v 3.85547175 -0.15491340 -1.85635248
v 3.85547175 -0.15491340 -3.70968581
v 4.04080508 0.77175327 -3.89501914
v 1.81680508 1.88375327 -2.78301914
v 2.92880508 1.88375327 -1.67101914
v 2.92880508 2.43975327 -2.78301914
v 2.92880508 -0.89624673 -2.78301914
v 1.81680508 -0.34024673 -2.78301914
v 2.92880508 -0.34024673 -3.89501914
v 2.00213841 1.69841993 -1.85635248
v 2.92880508 0.77175327 -1.11501914
v 2.00213841 1.69841993 -3.70968581
v 2.92880508 1.88375327 -3.89501914
v 1.81680508 0.77175327 -3.89501914
v 2.00213841 -0.15491340 -1.85635248
v 2.92880508 -0.34024673 -1.67101914
v 1.81680508 0.77175327 -1.67101914
v 2.00213841 -0.15491340 -3.70968581
v 2.92880508 0.77175327 -4.45101914
vn 0.85331502 0.36868243 0.36868243
vn 0.85331502 0.36868243 -0.36868243
vn 0.85331502 -0.36868243 0.36868243
vn 0.85331502 -0.36868243 -0.36868243
vn -0.85331502 0.36868243 0.36868243
vn -0.85331502 0.36868243 -0.36868243
vn -0.85331502 -0.36868243 0.36868243
vn -0.85331502 -0.36868243 -0.36868243
vn 0.36868243 0.85331502 0.36868243
vn 0.36868243 0.85331502 -0.36868243
vn 0.36868243 -0.85331502 0.36868243
vn 0.36868243 -0.85331502 -0.36868243
vn 0.36868243 0.36868243 0.85331502
vn 0.36868243 0.36868243 -0.85331502
vn 0.36868243 -0.36868243 0.85331502
vn 0.36868243 -0.36868243 -0.85331502
vn -0.36868243 0.85331502 0.36868243
vn -0.36868243 0.85331502 -0.36868243
vn -0.36868243 -0.85331502 0.36868243
vn -0.36868243 -0.85331502 -0.36868243
vn -0.36868243 0.36868243 0.85331502
vn -0.36868243 0.36868243 -0.85331502
vn -0.36868243 -0.36868243 0.85331502
vn -0.36868243 -0.36868243 -0.85331502
vn 0.91024739 0.41406483 -1.2973798e-16
vn 0.91024739 -1.2253031e-16 0.41406483
vn 0.66897940 0.66897940 0.32393381
vn 0.66897940 0.32393381 0.66897940
vn 0.91024739 -1.4415331e-16 -0.41406483
vn 0.66897940 0.66897940 -0.32393381
vn 0.66897940 0.32393381 -0.66897940
vn 0.91024739 -0.41406483 1.7298397e-16
vn 0.66897940 -0.66897940 0.32393381
vn 0.66897940 -0.32393381 0.66897940
vn 0.66897940 -0.66897940 -0.32393381
vn 0.66897940 -0.32393381 -0.66897940
vn -0.91024739 0.41406483 -7.2076653e-18
vn -0.91024739 7.2076653e-18 0.41406483
vn -0.66897940 0.66897940 0.32393381
vn -0.66897940 0.32393381 0.66897940
vn -0.91024739 1.8019163e-16 -0.41406483
vn -0.66897940 0.66897940 -0.32393381
vn -0.66897940 0.32393381 -0.66897940
vn -0.91024739 -0.41406483 -5.0453657e-17
vn -0.66897940 -0.66897940 0.32393381
vn -0.66897940 -0.32393381 0.66897940
vn -0.66897940 -0.66897940 -0.32393381
vn -0.66897940 -0.32393381 -0.66897940
vn 0.41406483 0.91024739 5.0453657e-17
vn 0.32393381 0.66897940 0.66897940
vn -1.4415331e-17 0.91024739 0.41406483
vn 0.32393381 0.66897940 -0.66897940
vn 7.2076653e-18 0.91024739 -0.41406483
vn 0.41406483 -0.91024739 -2.1622996e-16
vn 0.32393381 -0.66897940 0.66897940
vn -2.8830661e-17 -0.91024739 0.41406483
vn 0.32393381 -0.66897940 -0.66897940
vn 2.1622996e-17 -0.91024739 -0.41406483
vn 0.41406483 3.6038327e-17 0.91024739
vn -2.1622996e-17 0.41406483 0.91024739
vn 0.41406483 -1.0811498e-16 -0.91024739
vn 7.8563552e-16 0.41406483 -0.91024739
vn -2.8830661e-17 -0.41406483 0.91024739
vn -2.3785296e-16 -0.41406483 -0.91024739
vn -0.41406483 0.91024739 -3.6038327e-17
vn -0.32393381 0.66897940 0.66897940
vn -0.32393381 0.66897940 -0.66897940
vn -0.41406483 -0.91024739 -2.1622996e-17
vn -0.32393381 -0.66897940 0.66897940
vn -0.32393381 -0.66897940 -0.66897940
vn -0.41406483 -7.2076653e-18 0.91024739
vn -0.41406483 -5.4057490e-16 -0.91024739
vn 1.00000000 -4.0930973e-16 3.6545512e-16
vn -1.00000000 0.0000000e+0 -8.7709228e-17
vn 0.70710678 0.70710678 -2.4918572e-16
vn 0.70710678 -0.70710678 -1.7798980e-16
vn 0.57735027 0.57735027 0.57735027
vn 0.70710678 8.5435104e-17 0.70710678
vn 0.57735027 0.57735027 -0.57735027
vn 0.57735027 -0.57735027 0.57735027
vn 0.57735027 -0.57735027 -0.57735027
vn 0.70710678 -4.9837144e-17 -0.70710678
vn -0.70710678 0.70710678 3.5597960e-17
vn -3.5597960e-17 0.70710678 0.70710678
vn -2.1927307e-17 1.00000000 -3.6545512e-17
vn 0.0000000e+0 -1.00000000 -5.8472819e-17
vn -0.70710678 -0.70710678 -2.1358776e-17
vn -2.5630531e-16 -0.70710678 -0.70710678
vn -0.57735027 0.57735027 0.57735027
vn -3.6545512e-17 -1.4618205e-17 1.00000000
vn -0.57735027 0.57735027 -0.57735027
vn 3.8445797e-16 0.70710678 -0.70710678
vn -0.70710678 1.4239184e-16 -0.70710678
vn -0.57735027 -0.57735027 0.57735027
vn -7.1195920e-18 -0.70710678 0.70710678
vn -0.70710678 3.5597960e-17 0.70710678
vn -0.57735027 -0.57735027 -0.57735027
vn 4.6047345e-16 -4.9701896e-16 -1.00000000
g octotoad2_default
usemtl default
f 1//1 26//26 73//73 25//25
f 1//1 28//28 78//78 26//26
f 2//2 25//25 73//73 29//29
f 2//2 31//31 79//79 30//30
f 3//3 26//26 78//78 34//34
f 3//3 33//33 76//76 32//32
f 3//3 34//34 80//80 33//33
f 4//4 32//32 76//76 35//35
f 5//5 39//39 83//83 37//37
f 5//5 40//40 89//89 39//39
f 6//6 37//37 83//83 42//42
f 6//6 43//43 93//93 41//41
f 7//7 38//38 74//74 44//44
f 8//8 41//41 93//93 48//48
f 8//8 44//44 74//74 41//41
f 8//8 48//48 97//97 47//47
f 9//9 27//27 75//75 49//49
f 9//9 51//51 84//84 50//50
f 10//10 30//30 79//79 52//52
f 10//10 49//49 75//75 30//30
f 11//11 33//33 80//80 55//55
f 11//11 56//56 86//86 54//54
f 12//12 54//54 86//86 58//58
f 12//12 58//58 88//88 57//57
f 13//13 50//50 84//84 60//60
f 13//13 60//60 90//90 59//59
f 14//14 31//31 82//82 61//61
f 14//14 52//52 79//79 31//31
f 15//15 55//55 80//80 34//34
f 15//15 59//59 90//90 63//63
f 16//16 57//57 88//88 64//64
f 16//16 61//61 82//82 36//36
f 17//17 39//39 89//89 66//66
f 17//17 51//51 85//85 65//65
f 18//18 53//53 92//92 67//67
f 18//18 65//65 85//85 53//53
f 19//19 45//45 87//87 68//68
f 19//19 56//56 95//95 69//69
f 20//20 47//47 97//97 70//70
f 20//20 68//68 87//87 47//47
f 21//21 40//40 96//96 71//71
f 21//21 66//66 89//89 40//40
f 22//22 62//62 98//98 72//72
f 22//22 67//67 92//92 62//62
f 23//23 69//69 95//95 63//63
f 23//23 71//71 96//96 46//46
f 24//24 70//70 97//97 48//48
f 24//24 72//72 98//98 64//64
f 25//25 75//75 27//27 1//1
f 27//27 77//77 28//28 1//1
f 28//28 77//77 50//50 13//13
f 29//29 73//73 32//32 4//4
f 29//29 82//82 31//31 2//2
f 30//30 75//75 25//25 2//2
f 32//32 73//73 26//26 3//3
f 34//34 78//78 59//59 15//15
f 35//35 76//76 54//54 12//12
f 35//35 81//81 36//36 4//4
f 36//36 81//81 57//57 16//16
f 36//36 82//82 29//29 4//4
f 37//37 74//74 38//38 5//5
f 38//38 96//96 40//40 5//5
f 41//41 74//74 37//37 6//6
f 42//42 83//83 65//65 18//18
f 42//42 91//91 43//43 6//6
f 43//43 91//91 67//67 22//22
f 44//44 87//87 45//45 7//7
f 45//45 94//94 46//46 7//7
f 46//46 94//94 69//69 23//23
f 46//46 96//96 38//38 7//7
f 47//47 87//87 44//44 8//8
f 48//48 93//93 72//72 24//24
f 49//49 85//85 51//51 9//9
f 50//50 77//77 27//27 9//9
f 52//52 92//92 53//53 10//10
f 53//53 85//85 49//49 10//10
f 54//54 76//76 33//33 11//11
f 55//55 95//95 56//56 11//11
f 57//57 81//81 35//35 12//12
f 58//58 86//86 68//68 20//20
f 59//59 78//78 28//28 13//13
f 60//60 84//84 66//66 21//21
f 61//61 98//98 62//62 14//14
f 62//62 92//92 52//52 14//14
f 63//63 90//90 71//71 23//23
f 63//63 95//95 55//55 15//15
f 64//64 88//88 70//70 24//24
f 64//64 98//98 61//61 16//16
f 65//65 83//83 39//39 17//17
f 66//66 84//84 51//51 17//17
f 67//67 91//91 42//42 18//18
f 68//68 86//86 56//56 19//19
f 69//69 94//94 45//45 19//19
f 70//70 88//88 58//58 20//20
f 71//71 90//90 60//60 21//21
f 72//72 93//93 43//43 22//22
o cube1
#71 vertices, 80 faces
v -1.90415772 -1.36528697 1.55497159
v 1.55497159 -1.36528697 1.55497159
v -1.00000000 -1.36528697 -1.00000000
v 1.55497159 -1.36528697 -1.00000000
v -1.00000000 -1.36528697 0.0000000e+0
v -1.00000000 0.0000000e+0 -1.00000000
v 0.0000000e+0 -1.36528697 -1.00000000
v 0.0000000e+0 0.0000000e+0 -1.00000000
v -1.00000000 0.0000000e+0 0.0000000e+0
v 0.0000000e+0 -1.36528697 0.0000000e+0
v -1.90415772 -1.00000000 0.59955556
v -1.90415772 0.77516131 0.77516131
v -1.00000000 0.59955556 -1.00000000
v 0.77516131 0.77516131 -1.00000000
v 0.59955556 -1.00000000 -1.00000000
v -1.90415772 1.01434688 1.55497159
v -1.90415772 1.10738544 1.40014857
v 1.55497159 1.01434688 1.55497159
v -1.00000000 1.01434688 -1.00000000
v 1.55497159 1.01434688 -1.00000000
v 1.40014857 1.10738544 -1.00000000
v -0.88939238 1.12495450 1.44436397
v -0.92558965 1.14231181 1.39144247
v 1.44436397 1.12495450 1.44436397
v 1.44436397 1.12495450 -0.88939238
v 1.39144247 1.14231181 -0.92558965
v -0.88939238 1.12495450 -0.88939238
v -0.71254639 1.18968462 1.26751798
v 1.26751798 1.18968462 1.26751798
v 1.26751798 1.18968462 -0.71254639
v -0.71254639 1.18968462 -0.71254639
v -0.60219750 1.12712416 1.43774878
v -0.91654034 1.13797248 1.11295330
v 1.09574886 1.07217526 1.14401004
v 1.43774878 1.12712416 -0.60219750
v 1.11295330 1.13797248 -0.91654034
v -0.58428130 1.11361514 -0.58360308
v -0.71254639 1.18968462 1.26751798
v 1.21062241 1.13690539 1.25888359
v 1.26751798 1.18968462 -0.71254639
v -0.68801501 1.17400594 -0.68733679
v -1.98920543 0.46162043 -1.73916109
v -1.98920543 -0.36366654 -1.73916109
v -1.98920543 -0.36366654 -1.27916109
v -1.98920543 0.46162043 -1.27916109
v -1.71920543 -0.36366654 -2.00916109
v -1.71920543 0.46162043 -2.00916109
v -1.25920543 0.46162043 -2.00916109
v -1.25920543 -0.36366654 -2.00916109
v 1.42053825 1.10658945 0.28957731
v 0.24081392 1.11795447 -0.88228142
v 1.41790322 1.13363315 -0.90749102
v -0.90749102 1.13363315 1.41790322
v 0.24441595 1.09054031 1.42363806
v -0.87274851 1.13363315 0.25102505
v 0.26727467 1.17400594 -0.68733679
v 0.24441595 1.15527044 1.24679207
v -0.67780388 1.18968462 0.27748580
v 1.24369226 1.17131957 0.28957731
v -0.72658257 1.05582245 -0.12738438
v 1.45849159 0.94024908 -0.81360489
v 1.27476927 0.90193111 0.61882247
v 0.95637721 -1.11663630 0.95858797
v 0.73866896 -1.60537499 0.40604325
v 0.45853758 -1.11726610 0.46074834
v 0.40503561 -1.60537499 0.75092588
v 0.91681250 -1.64414879 0.69506202
v 0.58491941 -1.64456865 0.36316894
v 0.36249718 -1.64456865 0.59309069
v 0.69439026 -1.64414879 0.92498378
v 0.63965484 -1.64435872 0.64407636
vn -0.48388250 -0.74896796 0.45266403
vn 0.43306181 -0.78932423 0.43522952
vn -0.33779350 -0.87881480 -0.33701648
vn 0.45486948 -0.72632512 -0.51531115
vn -0.55515342 -0.82572944 -9.9877836e-2
vn -0.35354653 0.74353287 -0.56759468
vn 0.14410077 -0.75887349 -0.63509526
vn 0.23967530 0.34851945 -0.90614013
vn -0.93464616 0.26926875 -0.23223026
vn -8.2056927e-2 -0.99342141 -7.9878475e-2
vn -0.70859323 -0.63426530 -0.30919763
vn -0.91522159 -1.4472613e-2 -0.40269094
vn -0.54575709 -3.0858385e-2 -0.83737504
vn 2.9801358e-17 0.0000000e+0 -1.00000000
vn 6.3905631e-2 -0.54058837 -0.83885653
vn -0.35852244 0.54926572 0.75483033
vn -0.67683144 0.73606140 1.0621551e-2
vn 0.61013148 0.50544947 0.61013148
vn -0.32442642 0.67831008 -0.65927455
vn 0.73673101 0.50966377 -0.44437626
vn 0.13746540 0.47494036 -0.86921512
vn -1.4550589e-2 0.88248532 0.47011482
vn -0.11878553 0.97423778 0.19170486
vn 0.29091036 0.91145067 0.29091036
vn 0.47833196 0.87369976 -8.8584797e-2
vn 0.20586774 0.92346062 -0.32378844
vn -0.11254166 0.96307747 -0.24457344
vn -3.0058716e-2 0.99848957 -4.5989651e-2
vn -8.0126620e-2 0.90734576 -0.41267831
vn 2.6853600e-3 0.99863376 5.2186269e-2
vn -3.0734587e-2 0.99748677 6.3839907e-2
vn 3.0283894e-2 7.8785574e-2 -0.99643149
vn 0.99546755 7.2792375e-2 -6.1201574e-2
vn -0.74799572 0.15660245 -0.64496363
vn -0.82819328 -0.56030338 -1.2490837e-2
vn 0.15739876 -0.17114711 0.97259154
vn 0.80629048 3.8536239e-2 0.59026318
vn 0.21518413 -0.94852534 -0.23236926
vn -0.62627731 0.11206754 -0.77150347
vn -0.48021338 -0.79655404 0.36728295
vn 0.56341212 0.36542733 0.74096535
vn 1.7737086e-2 0.74910897 -0.66220930
vn -0.72230238 -0.45605044 -0.51990122
vn -0.93716348 -0.26314236 0.22908669
vn -0.78120224 0.51741424 0.34929293
vn -0.52235638 -0.45526248 -0.72102697
vn -0.66711066 0.74495262 -2.9935082e-3
vn 0.35636829 0.51820642 -0.77747267
vn 0.23521344 -0.26695008 -0.93456530
vn -0.94851771 -0.25039341 -0.19395178
vn 0.13947983 0.34295985 0.92893698
vn -0.56006111 -0.67124532 0.48555255
vn 0.59111595 0.10377103 -0.79988343
vn -0.12427634 0.34381593 -0.93077709
vn 0.97048927 -0.14645747 0.19157448
vn 9.5070493e-2 -0.38477552 0.91810097
vn -5.4358457e-2 -0.18925717 -0.98042179
vn 0.91384138 -0.39176759 0.10682738
vn -0.96688575 -0.23009269 -0.11040515
vn 0.25777375 0.94033063 0.22210584
vn -0.64931472 0.71243419 0.26613514
vn -0.24588268 0.95378152 -0.17274986
vn 0.33334416 -0.88634578 0.32136089
vn 0.11217659 -0.95378844 -0.27875441
vn -0.40583100 -0.82823926 -0.38642065
vn -0.19711227 -0.98033575 9.4110497e-3
vn 2.1041190e-2 -0.98049235 0.19542779
vn -0.30642852 -0.94647126 -0.10145792
vn -7.1847715e-2 -0.93414810 -0.34957865
vn 0.22450113 -0.97444635 7.3179501e-3
vn -3.0775057e-2 -0.99905481 -3.0698184e-2
g cube1_default2
usemtl default2
f 99//99 100//100 116//116 114//114
f 99//99 168//168 100//100
f 100//100 165//165 102//102
f 100//100 168//168 161//161
f 101//101 141//141 140//140 104//104
f 101//101 144//144 147//147 105//105
f 102//102 118//118 116//116 100//100
f 102//102 165//165 162//162 113//113
f 103//103 109//109 110//110 107//107
f 103//103 142//142 141//141 101//101
f 103//103 167//167 164//164 109//109
f 104//104 107//107 110//110 111//111
f 104//104 140//140 143//143 107//107
f 104//104 145//145 144//144 101//101
f 105//105 106//106 112//112 113//113
f 105//105 108//108 103//103 101//101
f 105//105 147//147 146//146 106//106
f 105//105 166//166 108//108
f 106//106 146//146 145//145 104//104
f 107//107 143//143 142//142 103//103
f 108//108 166//166 163//163
f 108//108 167//167 103//103
f 109//109 164//164 168//168 99//99
f 111//111 110//110 115//115 117//117
f 111//111 112//112 106//106 104//104
f 113//113 112//112 119//119 118//118 102//102
f 113//113 162//162 166//166 105//105
f 114//114 115//115 110//110 109//109 99//99
f 114//114 120//120 121//121 115//115
f 115//115 121//121 125//125 117//117
f 116//116 122//122 120//120 114//114
f 117//117 119//119 112//112 111//111
f 117//117 125//125 124//124 119//119
f 118//118 123//123 122//122 116//116
f 119//119 124//124 123//123 118//118
f 120//120 126//126 121//121
f 121//121 126//126 129//129 125//125
f 122//122 127//127 126//126 120//120
f 123//123 128//128 127//127 122//122
f 124//124 128//128 123//123
f 125//125 129//129 128//128 124//124
f 126//126 136//136 156//156 139//139 129//129
f 127//127 155//155 126//126
f 128//128 138//138 157//157 137//137 127//127
f 129//129 139//139 154//154 138//138 128//128
f 130//130 152//152 160//160
f 131//131 151//151 160//160
f 132//132 148//148 160//160
f 133//133 150//150 159//159
f 134//134 149//149 158//158
f 135//135 153//153 158//158
f 136//136 126//126 155//155
f 136//136 151//151 131//131
f 137//137 155//155 127//127
f 138//138 150//150 133//133
f 141//141 142//142 143//143 140//140
f 145//145 146//146 147//147 144//144
f 148//148 157//157 138//138 133//133
f 149//149 154//154 139//139 135//135
f 150//150 138//138 134//134
f 151//151 136//136 130//130
f 152//152 155//155 137//137 132//132
f 153//153 156//156 136//136 131//131
f 154//154 149//149 134//134 138//138
f 155//155 152//152 130//130 136//136
f 156//156 153//153 135//135 139//139
f 157//157 148//148 132//132 137//137
f 158//158 149//149 135//135
f 158//158 159//159 150//150 134//134
f 159//159 160//160 148//148 133//133
f 160//160 151//151 130//130
f 160//160 152//152 132//132
f 160//160 158//158 153//153 131//131
f 160//160 159//159 158//158
f 161//161 165//165 100//100
f 161//161 168//168 169//169 165//165
f 163//163 167//167 108//108
f 165//165 169//169 166//166 162//162
f 166//166 169//169 167//167 163//163
f 167//167 169//169 168//168 164//164
