# Exported from Wings 3D 1.0.2
#mtllib 2.mtl
o cube1
#20 vertices, 18 faces
v -1.00000000 -1.36528697 1.55497159
v -1.00000000 1.18968462 1.55497159
v 1.55497159 1.18968462 1.55497159
v 1.55497159 -1.36528697 1.55497159
v -1.00000000 -1.36528697 -1.00000000
v -1.00000000 1.18968462 -1.00000000
v 1.55497159 1.18968462 -1.00000000
v 1.55497159 -1.36528697 -1.00000000
v -1.00000000 -1.36528697 0.0000000e+0
v -1.00000000 0.0000000e+0 -1.00000000
v 0.0000000e+0 -1.36528697 -1.00000000
v 0.0000000e+0 0.0000000e+0 -1.00000000
v -1.00000000 0.0000000e+0 0.0000000e+0
v 0.0000000e+0 -1.36528697 0.0000000e+0
v -1.00000000 -1.00000000 0.59955556
v -1.00000000 0.77516131 0.77516131
v 0.77516131 -1.00000000 0.77516131
v -1.00000000 0.59955556 -1.00000000
v 0.77516131 0.77516131 -1.00000000
v 0.59955556 -1.00000000 -1.00000000
vn -0.66647962 -0.62240039 0.41039331
vn -0.81649658 0.40824829 0.40824829
vn 0.57735027 0.57735027 0.57735027
vn 0.30523201 -0.90203483 0.30523201
vn -0.57735027 -0.57735027 -0.57735027
vn -0.57735027 0.57735027 -0.57735027
vn 0.40824829 0.40824829 -0.81649658
vn 0.41039331 -0.62240039 -0.66647962
vn -0.72367098 -0.66838462 0.17193695
vn -0.70710678 0.0000000e+0 -0.70710678
vn 0.17193695 -0.66838462 -0.72367098
vn 0.0000000e+0 0.0000000e+0 -1.00000000
vn -1.00000000 0.0000000e+0 0.0000000e+0
vn 0.16001951 -0.97405724 0.16001951
vn -0.74634035 -0.66475906 3.2733280e-2
vn -1.00000000 0.0000000e+0 -2.9585772e-17
vn 2.0558510e-2 -0.99957726 2.0558510e-2
vn -0.70710678 3.7264801e-17 -0.70710678
vn 0.0000000e+0 2.6350194e-17 -1.00000000
vn 3.2733280e-2 -0.66475906 -0.74634035
#g cube1_default2
#usemtl default2
f 1//1 4//4 3//3 2//2
f 1//1 15//15 17//17 4//4
f 2//2 16//16 15//15 1//1
f 3//3 7//7 6//6 2//2
f 4//4 8//8 7//7 3//3
f 4//4 17//17 20//20 8//8
f 5//5 9//9 13//13 10//10
f 6//6 18//18 16//16 2//2
f 7//7 19//19 18//18 6//6
f 8//8 20//20 19//19 7//7
f 9//9 15//15 16//16 13//13
f 10//10 12//12 11//11 5//5
f 10//10 13//13 16//16 18//18
f 11//11 12//12 19//19 20//20
f 11//11 14//14 9//9 5//5
f 14//14 17//17 15//15 9//9
f 18//18 19//19 12//12 10//10
f 20//20 17//17 14//14 11//11
